<?xml version="1.0" standalone="no"?>
<!DOCTYPE svg PUBLIC "-//W3C//DTD SVG 20010904//EN"
 "http://www.w3.org/TR/2001/REC-SVG-20010904/DTD/svg10.dtd">
<svg version="1.0" xmlns="http://www.w3.org/2000/svg"
 width="1024.000000pt" height="700.000000pt" viewBox="0 0 1024.000000 700.000000"
 preserveAspectRatio="xMidYMid meet">

<g transform="translate(0.000000,700.000000) scale(0.100000,-0.100000)"
fill="#000000" stroke="none">
<path d="M1937 6376 c10 -13 19 -23 21 -21 7 6 -19 45 -29 45 -5 0 -2 -11 8
-24z"/>
<path d="M2016 6177 c-34 -145 -109 -298 -247 -504 -38 -57 -69 -107 -69 -112
0 -5 6 -14 14 -20 11 -9 15 -8 20 5 4 9 4 19 1 22 -3 3 -5 -1 -5 -8 0 -7 -3
-10 -7 -6 -4 4 4 17 18 29 14 12 32 33 39 46 25 47 178 257 245 334 37 43 94
98 127 123 33 24 56 44 50 44 -24 0 -141 -101 -211 -181 -73 -84 -99 -107 -68
-57 44 67 131 337 115 353 -2 3 -12 -28 -22 -68z"/>
<path d="M1893 6125 c0 -27 2 -38 4 -22 2 15 2 37 0 50 -2 12 -4 0 -4 -28z"/>
<path d="M2295 6160 c-24 -6 -18 -8 30 -8 42 0 54 2 40 8 -24 10 -30 10 -70 0z"/>
<path d="M2318 6106 c-69 -28 -139 -73 -190 -119 -21 -19 -41 -31 -45 -28 -5
3 -5 2 -1 -3 4 -4 1 -15 -7 -22 -17 -17 -29 -18 -19 -1 4 6 -12 -6 -35 -28
-22 -21 -41 -41 -41 -44 0 -3 14 8 30 24 43 41 37 24 -19 -53 -44 -61 -86
-133 -117 -204 -10 -21 -10 -26 0 -22 7 3 25 30 40 62 63 127 200 308 256 337
15 8 35 22 44 30 9 9 53 34 98 55 92 44 95 53 6 16z"/>
<path d="M1858 5976 c-14 -44 -25 -82 -23 -84 6 -6 57 136 54 150 -2 9 -16
-21 -31 -66z"/>
<path d="M1430 6040 c0 -5 5 -10 10 -10 6 0 15 -10 20 -22 5 -13 9 -17 9 -10
1 19 -18 52 -29 52 -6 0 -10 -4 -10 -10z"/>
<path d="M2438 6015 c10 -16 22 -37 25 -45 4 -12 6 -12 6 2 1 9 -11 30 -25 45
l-26 28 20 -30z"/>
<path d="M1645 5943 c-72 -115 -243 -332 -450 -569 -118 -136 -156 -182 -187
-224 -27 -36 -49 -56 -32 -28 4 7 3 8 -5 4 -6 -4 -9 -12 -6 -17 4 -5 -1 -19
-9 -31 -9 -12 -16 -18 -16 -13 0 6 -5 3 -10 -5 -7 -10 -10 -11 -10 -2 0 7 7
15 15 18 16 7 21 44 5 44 -5 0 -7 -6 -4 -14 3 -7 -2 -16 -10 -19 -9 -4 -16 -4
-16 -2 0 16 55 115 95 171 45 63 46 66 29 85 -9 10 -22 19 -27 19 -6 0 -4 -6
5 -12 15 -12 9 -23 -48 -103 -70 -97 -80 -108 -71 -84 3 9 1 21 -5 27 -8 8 -6
18 5 36 31 47 58 98 54 102 -5 5 -26 -19 -42 -46 -53 -93 -78 -130 -88 -129
-9 0 -9 2 0 5 7 3 10 11 7 17 -2 7 15 37 37 67 27 35 32 46 15 31 -41 -38
-130 -179 -159 -251 -39 -101 -53 -212 -38 -312 15 -96 77 -298 92 -298 6 0 8
-4 5 -9 -8 -13 4 -42 15 -35 5 3 6 -2 3 -10 -7 -18 75 -156 190 -321 67 -96
82 -123 75 -138 -6 -10 -15 -14 -21 -11 -8 5 -6 11 4 18 12 9 1 29 -69 124
-51 69 -88 110 -95 106 -7 -4 -8 -3 -4 5 4 7 -14 42 -45 84 -63 87 -77 102
-55 62 25 -46 40 -69 50 -76 5 -4 5 -12 1 -19 -5 -9 -4 -11 3 -6 7 4 12 3 12
-3 0 -20 -20 -22 -28 -3 -6 16 -9 17 -19 7 -10 -10 -9 -14 3 -19 17 -6 10 -26
-9 -26 -7 0 -6 4 3 10 11 7 12 10 2 10 -16 0 -51 39 -52 57 0 6 -5 15 -11 18
-15 10 15 -58 58 -129 48 -79 117 -176 217 -301 80 -101 126 -182 126 -222 0
-38 17 -35 49 9 40 54 97 101 256 209 147 100 268 197 260 209 -3 5 -1 11 4
15 6 3 8 12 5 19 -3 8 13 33 36 57 73 77 66 77 -12 0 -52 -51 -75 -80 -73 -93
2 -10 0 -16 -6 -13 -5 4 -7 11 -4 16 13 20 -8 7 -77 -51 -40 -32 -131 -105
-203 -162 -117 -93 -159 -138 -210 -223 -8 -14 -11 -2 -13 51 -2 60 1 74 22
102 31 43 38 48 186 137 69 42 139 87 155 101 29 25 15 23 -15 -1 -26 -21
-110 -65 -110 -57 1 4 39 31 85 61 105 67 212 165 312 284 42 51 108 126 147
167 39 41 60 65 47 55 -34 -28 -137 -137 -208 -220 -108 -126 -205 -210 -331
-284 -56 -33 -67 -37 -57 -21 3 5 -3 15 -14 21 -18 12 -16 15 29 48 189 141
318 256 370 331 39 56 177 251 217 305 20 27 28 43 19 36 -10 -8 -70 -87 -134
-175 -135 -186 -287 -349 -303 -326 -9 12 -10 12 -5 -3 4 -12 -6 -24 -37 -44
-23 -15 -48 -26 -55 -25 -7 2 -11 -3 -10 -9 2 -7 -6 -14 -17 -16 -15 -2 -16
-1 -5 5 22 11 22 30 0 37 -11 4 -20 11 -20 18 0 8 3 8 11 0 6 -6 18 -9 25 -6
8 3 14 0 14 -6 0 -6 7 -11 15 -11 8 0 15 5 15 10 0 6 6 10 14 10 20 0 40 26
26 35 -6 4 -9 1 -8 -7 2 -7 -5 -12 -14 -12 -10 1 -18 -2 -18 -7 0 -5 -7 -9
-16 -9 -10 0 -14 5 -10 16 4 10 2 13 -6 8 -7 -4 -26 -8 -43 -8 -24 -1 -30 -5
-28 -21 1 -11 0 -14 -3 -7 -3 6 -13 12 -22 12 -26 0 -4 15 91 64 153 78 277
179 349 284 36 53 95 177 103 217 5 28 4 28 -9 -5 -8 -19 -15 -31 -15 -25 -1
5 -6 4 -12 -2 -14 -14 -42 -5 -32 10 3 6 1 7 -5 3 -18 -11 -15 0 17 51 30 50
65 122 146 303 56 123 114 226 158 278 20 23 23 30 8 17 -42 -36 -97 -127
-201 -335 -107 -213 -164 -312 -178 -308 -5 2 -21 -10 -36 -27 l-27 -30 29 45
c30 46 94 184 107 230 10 34 189 391 233 465 112 186 204 266 340 299 32 8 46
15 31 15 -37 1 -126 -27 -168 -53 -96 -61 -238 -255 -317 -433 -21 -46 -41
-83 -46 -83 -11 0 -11 -3 17 70 29 75 30 76 10 60 -8 -7 -13 -15 -11 -19 2 -3
-2 -19 -9 -36 l-13 -30 4 40 c4 35 1 31 -26 -35 -17 -41 -46 -118 -65 -170
-41 -117 -80 -206 -95 -215 -6 -4 -9 -14 -5 -23 3 -9 3 -13 -1 -9 -4 4 -16
-10 -25 -30 -17 -36 -18 -36 -19 -11 0 14 6 29 13 31 9 4 9 6 -1 6 -8 1 -19
-12 -25 -29 -6 -16 -15 -30 -19 -30 -5 0 3 23 17 50 41 81 160 439 153 460 -2
7 -23 -44 -47 -112 -24 -67 -53 -143 -64 -168 -11 -25 -20 -61 -21 -80 -1 -25
-6 -36 -19 -38 -25 -5 -34 28 -12 44 10 8 14 14 9 14 -27 0 -47 -54 -23 -62 9
-3 9 -10 0 -26 -12 -23 -35 -29 -46 -11 -4 6 0 9 10 7 10 -2 20 2 22 7 2 6 -5
11 -16 12 -21 2 -35 -22 -24 -39 3 -7 1 -8 -5 -4 -7 4 -12 20 -12 36 0 97 -62
238 -136 311 -42 41 -47 44 -102 44 -60 -1 -168 -42 -205 -79 -71 -72 84 138
174 234 133 143 245 269 260 295 11 16 19 26 19 21 0 -12 29 25 30 37 0 5 -30
-24 -67 -64 -38 -40 -118 -125 -180 -188 -119 -124 -218 -239 -260 -302 -27
-41 -41 -53 -23 -19 12 22 173 251 213 301 18 23 23 37 16 45 -7 8 0 22 21 45
17 19 41 48 52 64 34 51 -69 -64 -174 -195 -55 -68 -105 -134 -111 -147 -6
-13 -14 -23 -19 -23 -4 0 -8 -7 -8 -15 0 -8 -7 -15 -16 -15 -8 0 -12 -4 -9
-10 3 -5 -1 -10 -9 -10 -10 0 -13 -6 -9 -17 4 -11 3 -14 -5 -9 -11 6 -13 2
-12 -19 1 -3 -6 -12 -14 -20 -8 -8 -16 -20 -19 -27 -2 -7 -8 -10 -12 -6 -8 8
82 148 96 148 5 0 9 5 9 12 0 6 17 32 38 57 288 345 508 636 566 749 28 55 11
35 -39 -45z m-356 -559 c-14 -18 -24 -11 -15 11 3 9 11 13 16 10 8 -5 7 -11
-1 -21z m-403 -227 c1 -12 -5 -33 -13 -47 -13 -25 -14 -24 -8 10 4 31 4 33 -7
13 -6 -13 -15 -23 -19 -23 -4 0 2 18 13 40 23 42 31 44 34 7z m-76 -26 c0 -18
-12 -41 -22 -41 -6 0 -5 6 2 15 6 8 9 19 5 25 -3 5 -1 10 4 10 6 0 11 -4 11
-9z m11 -65 c-14 -36 -22 -33 -9 5 6 16 12 28 14 26 3 -2 0 -16 -5 -31z m-38
-1 c-3 -9 -8 -14 -10 -11 -3 3 -2 9 2 15 9 16 15 13 8 -4z m540 -126 c58 -29
111 -119 128 -216 13 -74 0 -155 -37 -231 -83 -170 -312 -171 -399 -2 -50 97
-13 252 87 361 72 79 166 116 221 88z m300 -204 c-3 -9 -8 -14 -10 -11 -3 3
-2 9 2 15 9 16 15 13 8 -4z m18 -68 c-10 -9 -11 -8 -5 6 3 10 9 15 12 12 3 -3
0 -11 -7 -18z m49 18 c0 -8 -42 -56 -100 -115 -30 -31 -39 -38 -19 -15 20 22
41 47 48 55 6 8 20 26 31 39 11 13 20 28 20 33 0 4 5 8 10 8 6 0 10 -2 10 -5z
m71 -31 c-11 -15 -21 -24 -21 -20 0 10 34 55 39 51 2 -2 -6 -16 -18 -31z m79
16 c8 -5 11 -13 6 -17 -5 -4 -11 -2 -13 5 -3 6 -9 10 -13 7 -5 -3 -7 -12 -3
-20 4 -11 1 -13 -11 -9 -10 4 -16 1 -16 -7 0 -7 -3 -10 -6 -6 -6 6 26 56 36
57 3 0 12 -4 20 -10z m33 -10 c-3 -12 -8 -19 -11 -16 -5 6 5 36 12 36 2 0 2
-9 -1 -20z m-895 -366 c4 -25 -20 -47 -42 -38 -16 6 -22 45 -9 58 14 14 48 1
51 -20z m159 -116 c-3 -8 -6 -5 -6 6 -1 11 2 17 5 13 3 -3 4 -12 1 -19z m-64
-140 c18 -32 35 -58 39 -58 4 0 9 28 10 63 2 34 5 -1 6 -78 2 -77 4 -166 6
-198 2 -32 0 -72 -4 -90 -5 -20 -8 16 -9 101 -1 132 -1 133 -37 205 -20 39
-50 91 -65 114 -16 23 -29 45 -29 50 1 14 50 -51 83 -109z m287 86 c0 -8 -4
-14 -10 -14 -5 0 -10 7 -10 16 0 9 -5 12 -12 8 -7 -4 -8 -3 -4 4 9 15 36 4 36
-14z m4 -162 c8 -13 -7 -29 -34 -36 l-25 -7 24 14 c19 11 20 15 8 20 -9 3 -18
1 -20 -6 -2 -7 -8 -8 -13 -4 -10 10 14 27 38 27 9 0 19 -4 22 -8z m-75 -46 c9
-11 9 -16 -1 -22 -7 -4 -10 -4 -6 1 4 4 3 14 -3 22 -6 7 -9 13 -6 13 2 0 10
-6 16 -14z"/>
<path d="M1150 4723 c0 -9 -61 -47 -71 -45 -3 0 -6 -4 -7 -11 0 -7 -5 -37 -10
-67 -9 -50 -8 -59 14 -100 30 -56 91 -91 159 -92 26 -1 50 3 53 9 4 5 16 13
26 16 10 4 16 10 12 14 -3 4 4 18 16 31 13 14 17 22 9 17 -10 -6 -12 -4 -7 4
5 7 14 10 22 7 8 -3 15 0 15 7 5 50 4 85 -4 102 -14 31 -76 83 -111 94 -47 14
-116 22 -116 14z m217 -195 c-3 -8 -6 -5 -6 6 -1 11 2 17 5 13 3 -3 4 -12 1
-19z m-272 -18 c10 -11 16 -20 13 -20 -3 0 -13 9 -23 20 -10 11 -16 20 -13 20
3 0 13 -9 23 -20z"/>
<path d="M1085 4700 c-3 -5 -1 -10 4 -10 6 0 11 5 11 10 0 6 -2 10 -4 10 -3 0
-8 -4 -11 -10z"/>
<path d="M1340 4459 c0 -5 5 -7 10 -4 6 3 10 8 10 11 0 2 -4 4 -10 4 -5 0 -10
-5 -10 -11z"/>
<path d="M1796 5834 c-35 -63 -33 -70 5 -10 17 26 28 50 26 53 -3 2 -16 -17
-31 -43z"/>
<path d="M1410 5791 c-24 -49 -105 -149 -249 -310 -102 -114 -127 -151 -101
-151 6 0 10 4 10 8 0 5 41 55 91 113 137 156 210 251 247 318 18 34 31 61 28
61 -3 0 -15 -18 -26 -39z"/>
<path d="M1735 5806 c-6 -8 -20 -28 -33 -45 -13 -17 -21 -31 -19 -31 8 0 70
81 65 85 -2 2 -8 -2 -13 -9z"/>
<path d="M1649 5693 l-24 -28 28 24 c25 23 32 31 24 31 -2 0 -14 -12 -28 -27z"/>
<path d="M860 5601 c0 -4 11 -6 25 -3 14 2 37 -3 52 -12 l28 -17 -24 20 c-23
21 -81 29 -81 12z"/>
<path d="M1853 5578 c-10 -14 -63 -154 -63 -166 1 -13 30 32 30 45 0 7 13 40
29 73 26 55 28 78 4 48z"/>
<path d="M1415 5544 c-9 -14 -15 -27 -13 -30 2 -2 12 10 22 26 21 37 15 40 -9
4z"/>
<path d="M1655 5513 c-16 -21 -39 -49 -52 -63 -12 -13 -20 -27 -17 -30 3 -3
28 20 55 50 26 30 49 50 49 45 0 -6 -6 -18 -12 -25 -8 -10 -6 -9 5 1 13 11 15
21 9 38 -8 22 -9 22 -37 -16z"/>
<path d="M1369 5483 c-13 -16 -12 -17 4 -4 16 13 21 21 13 21 -2 0 -10 -8 -17
-17z"/>
<path d="M1660 5450 c-8 -5 -12 -12 -9 -15 4 -3 12 1 19 10 14 17 11 19 -10 5z"/>
<path d="M1325 5440 c-3 -5 -1 -10 4 -10 6 0 11 5 11 10 0 6 -2 10 -4 10 -3 0
-8 -4 -11 -10z"/>
<path d="M2340 5410 c11 -11 20 -33 20 -51 0 -17 4 -28 10 -24 6 3 10 14 10
24 0 20 -36 71 -51 71 -5 0 0 -9 11 -20z"/>
<path d="M956 5368 l-19 -33 23 21 c12 12 21 27 19 33 -3 7 -13 -3 -23 -21z"/>
<path d="M1539 5372 c-31 -33 -32 -46 -1 -18 18 17 32 31 32 33 0 8 -17 0 -31
-15z"/>
<path d="M1761 5324 c-12 -36 -20 -68 -18 -70 2 -2 14 26 25 63 12 36 20 68
18 70 -2 3 -14 -26 -25 -63z"/>
<path d="M1950 5315 c-7 -9 -11 -17 -9 -20 3 -2 10 5 17 15 14 24 10 26 -8 5z"/>
<path d="M1970 5305 c-7 -9 -8 -15 -2 -15 5 0 12 7 16 15 3 8 4 15 2 15 -2 0
-9 -7 -16 -15z"/>
<path d="M1721 5194 c0 -11 3 -14 6 -6 3 7 2 16 -1 19 -3 4 -6 -2 -5 -13z"/>
<path d="M996 5173 c-6 -14 -5 -15 5 -6 7 7 10 15 7 18 -3 3 -9 -2 -12 -12z"/>
<path d="M662 5077 c-1 -21 -12 -98 -23 -170 -26 -156 -31 -389 -11 -482 43
-200 115 -340 292 -570 43 -55 96 -127 119 -159 22 -33 41 -56 41 -52 0 13
-54 93 -151 221 -171 228 -242 367 -280 550 -25 121 -25 295 2 474 11 78 18
160 16 183 l-4 43 -1 -38z"/>
<path d="M2469 4888 c4 -28 6 -29 9 -9 2 13 0 27 -5 32 -6 6 -7 -3 -4 -23z"/>
<path d="M541 4854 c0 -11 3 -14 6 -6 3 7 2 16 -1 19 -3 4 -6 -2 -5 -13z"/>
<path d="M555 4808 c3 -14 9 -93 15 -175 6 -81 13 -167 16 -190 4 -24 4 -43 2
-43 -3 0 -20 40 -38 90 -19 49 -36 88 -38 85 -2 -2 10 -43 27 -90 17 -47 31
-95 31 -106 0 -11 4 -17 10 -14 5 3 7 0 4 -8 -7 -19 28 -168 67 -281 61 -180
148 -317 320 -501 115 -124 189 -224 189 -257 0 -10 6 -18 13 -18 9 0 19 -23
27 -57 26 -112 48 -198 60 -228 6 -16 13 -41 16 -55 2 -14 7 -41 10 -60 4 -19
3 -32 0 -28 -4 3 -8 13 -10 21 -1 8 -8 22 -15 30 -7 9 -23 53 -36 99 -32 118
-77 191 -185 303 -76 79 -282 279 -246 238 16 -18 25 -36 21 -43 -9 -14 -88
59 -81 76 2 6 -2 11 -9 11 -11 0 -12 -5 -3 -21 14 -26 209 -220 307 -306 41
-36 94 -91 118 -124 48 -65 59 -96 16 -45 -16 18 -70 68 -122 111 -75 62 -97
75 -111 68 -19 -10 -31 -1 -43 33 -4 11 -3 16 3 12 23 -14 7 7 -37 49 -26 24
-50 40 -53 36 -3 -5 -12 1 -19 13 -13 20 -13 21 2 8 10 -7 17 -9 17 -3 0 12
-25 34 -32 27 -3 -3 -13 5 -24 17 l-19 23 23 -19 c32 -27 28 -17 -24 60 -25
38 -63 100 -85 139 -55 98 -89 138 -48 55 18 -36 32 -68 31 -72 -1 -5 3 -8 9
-8 5 0 8 -4 5 -8 -6 -10 62 -154 111 -235 86 -142 152 -220 428 -502 64 -66
124 -130 132 -143 25 -36 7 -38 -23 -2 -15 17 -104 100 -198 184 -94 85 -209
197 -255 250 -46 53 -89 96 -94 96 -6 0 -7 3 -4 7 9 9 -13 34 -24 27 -11 -6
14 -43 80 -124 88 -106 147 -163 286 -278 219 -180 245 -208 287 -292 24 -49
37 -67 37 -52 1 12 -4 22 -10 22 -6 0 -9 7 -5 15 3 8 -4 36 -15 62 -34 79 -25
273 12 273 6 0 7 -4 4 -10 -3 -5 1 -51 10 -102 8 -51 14 -137 13 -190 -1 -53
1 -100 5 -104 4 -4 7 -11 7 -16 0 -5 -24 18 -52 51 -64 72 -110 113 -253 221
-105 79 -186 146 -264 217 -20 18 -40 33 -44 33 -5 0 -6 4 -3 9 3 4 -6 19 -19
31 -21 19 -25 21 -25 7 0 -31 186 -204 361 -334 95 -72 205 -163 242 -202 38
-39 70 -71 72 -71 2 0 1 10 -2 23 -3 12 -7 60 -9 107 l-3 85 15 -45 c8 -25 14
-71 13 -102 -2 -32 1 -61 4 -65 4 -3 7 10 7 31 0 22 4 35 10 31 16 -10 12 -62
-6 -69 -34 -13 -52 -4 -109 55 -81 82 -193 166 -290 216 -78 40 -201 84 -234
82 -9 0 22 -11 69 -25 95 -28 207 -85 290 -147 63 -46 200 -176 200 -189 0 -4
-11 -8 -25 -8 -17 0 -29 -9 -40 -29 -23 -45 -38 -168 -32 -263 6 -86 0 -107
-25 -92 -8 5 -6 10 8 15 12 4 1 7 -28 6 -43 -2 -47 -4 -42 -22 4 -11 13 -29
20 -40 14 -19 14 -19 14 3 0 12 -4 22 -10 22 -5 0 -10 5 -10 11 0 8 4 9 13 0
8 -6 17 -8 20 -4 4 3 7 1 7 -6 0 -7 4 -10 9 -7 5 4 7 -2 4 -12 -3 -12 2 -18
16 -19 22 -2 29 13 9 19 -7 3 -8 10 -3 17 5 10 11 5 21 -17 16 -40 44 -54 102
-50 45 3 47 5 50 35 2 17 10 37 18 43 15 13 15 12 18 -55 1 -16 6 -41 10 -54
6 -16 5 -21 -3 -17 -22 14 -11 -43 14 -71 l24 -28 2 55 c2 30 3 63 2 73 0 15
11 17 92 17 95 0 114 5 91 24 -48 39 -72 245 -41 352 9 32 24 67 32 77 15 16
12 17 -55 17 -63 0 -95 11 -79 26 3 3 63 14 134 25 133 20 185 32 98 24 -27
-3 -57 -1 -65 5 -13 8 -12 10 5 10 16 0 17 2 5 10 -8 5 -19 5 -25 0 -6 -5 -16
-5 -23 -1 -13 8 13 25 53 35 11 3 -6 3 -38 0 -74 -7 -143 -28 -140 -42 2 -6
-3 -9 -11 -6 -7 3 -20 -2 -29 -10 -13 -14 -15 -9 -16 42 0 32 -10 86 -21 121
-23 72 -24 85 -10 76 6 -3 10 1 10 9 0 9 -7 16 -15 16 -8 0 -19 17 -25 43 -6
23 -13 47 -15 54 -2 7 0 15 5 18 5 3 12 -7 16 -22 12 -55 22 -78 33 -76 6 2
13 -9 17 -25 3 -15 10 -43 15 -63 10 -42 13 -124 6 -156 l-6 -23 52 26 c34 18
102 35 207 54 156 28 302 64 330 82 11 7 10 8 -5 3 -11 -3 -33 -9 -50 -12 -24
-4 -21 0 20 21 54 28 52 28 -51 -4 -38 -11 -137 -36 -221 -55 -91 -20 -173
-45 -205 -62 -29 -15 -57 -30 -61 -32 -5 -2 -1 11 8 29 9 17 14 37 12 44 -3 7
9 41 26 77 30 60 32 71 31 164 -1 55 -4 116 -7 135 -3 19 -10 67 -16 105 -5
39 -13 79 -17 88 -7 19 13 67 28 67 4 0 8 -26 8 -57 1 -94 19 -255 31 -269 7
-8 8 -29 4 -55 -5 -27 -4 -39 3 -35 10 6 -28 -95 -65 -171 l-20 -41 37 19 c31
16 223 47 305 49 6 0 3 5 -5 11 -11 8 -7 9 18 5 23 -4 31 -2 26 6 -5 7 1 9 20
6 15 -3 24 -3 22 0 -3 3 23 15 57 27 72 25 298 127 293 132 -2 2 -66 -24 -144
-57 -151 -64 -219 -85 -312 -96 -105 -12 -175 16 -77 31 23 3 51 10 62 15 11
4 48 13 82 20 34 6 91 20 125 31 65 21 286 136 329 171 24 20 11 14 -161 -80
-109 -59 -278 -112 -357 -112 -45 0 -38 11 8 12 30 1 100 28 72 28 -6 0 -24 5
-40 12 -15 6 -34 10 -41 9 -6 -1 -12 3 -12 9 0 6 34 10 88 10 99 0 178 17 255
56 82 42 218 154 186 154 -5 0 -7 4 -4 10 3 5 -9 0 -28 -13 -25 -16 -32 -25
-25 -34 13 -17 1 -17 -16 -1 -11 10 -3 20 40 50 29 21 59 36 66 33 8 -3 23 5
34 17 l19 23 -23 -19 c-12 -11 -24 -17 -27 -14 -6 6 167 159 233 205 55 40 68
53 25 27 -17 -10 -93 -68 -169 -128 -76 -60 -144 -109 -150 -109 -7 0 -11 -3
-9 -6 2 -4 -15 -17 -37 -29 -36 -22 -39 -22 -29 -4 11 21 61 58 74 54 5 -1 6
1 3 6 -3 5 10 21 30 37 25 20 33 33 29 49 -2 11 -2 15 1 9 8 -18 27 -16 21 1
-4 9 -1 13 6 11 7 -2 57 32 112 76 222 178 335 236 445 226 34 -3 47 -2 35 3
-11 5 -42 9 -70 9 -86 1 -208 -60 -356 -177 -49 -39 -79 -56 -79 -47 0 8 4 15
10 15 5 0 7 8 4 18 -4 12 -3 13 3 4 8 -10 12 -10 22 2 7 8 10 20 6 26 -10 16
-55 -28 -55 -54 0 -13 -3 -17 -8 -9 -4 7 -42 -22 -105 -83 -53 -52 -102 -94
-109 -94 -6 0 -4 8 5 18 10 10 14 22 10 26 -4 3 6 19 23 34 38 35 148 162 141
162 -3 0 -44 -39 -91 -87 -72 -73 -88 -84 -100 -74 -9 7 -21 11 -28 8 -9 -4
-8 -6 3 -6 9 -1 24 -12 33 -26 15 -23 15 -25 -6 -39 -36 -26 -85 16 -58 49 8
9 8 15 2 15 -14 0 -25 -36 -17 -59 3 -11 0 -21 -9 -24 -16 -6 -14 20 5 81 6
17 11 68 11 111 0 128 -39 183 -139 194 -35 3 -43 1 -43 -12 0 -13 -2 -13 -9
-2 -6 9 -18 12 -32 8 -23 -6 -23 -5 -5 8 15 12 17 17 7 29 -11 13 -17 12 -49
-6 l-37 -21 34 30 c23 20 31 32 23 37 -7 4 -12 2 -12 -3 0 -6 -5 -11 -11 -11
-6 0 -25 -11 -43 -25 -18 -14 -36 -25 -41 -25 -4 0 -14 -8 -22 -17 -13 -16
-13 -16 -3 5 6 12 15 22 20 22 5 0 15 6 22 14 8 7 28 21 46 30 18 9 32 24 32
33 0 12 3 14 11 6 18 -18 669 314 669 342 0 2 -24 -11 -54 -30 -66 -42 -348
-181 -506 -250 -164 -71 -243 -117 -250 -146 -6 -26 -36 -37 -52 -21 -6 6 -7
20 -3 32 5 17 13 21 31 17 14 -2 29 2 36 11 11 13 9 14 -12 7 -24 -7 -24 -7
-5 8 11 9 22 11 23 6 2 -5 8 -9 13 -9 4 0 6 6 3 13 -9 24 68 74 226 146 193
89 256 121 285 146 24 20 18 19 -30 -9 -33 -20 -118 -59 -190 -89 -147 -61
-230 -101 -294 -141 -24 -15 -40 -22 -36 -16 5 9 1 10 -14 5 -34 -10 -25 1 29
35 55 35 126 90 117 90 -20 0 -241 -168 -274 -207 -91 -110 -142 -215 -149
-310 -6 -71 -20 -104 -70 -153 l-46 -45 7 52 c5 39 15 61 38 87 26 28 32 42
31 78 -1 24 3 52 8 63 8 15 8 17 -1 9 -6 -6 -13 -21 -16 -34 -5 -24 -12 -36
-19 -29 -2 2 8 35 22 72 20 51 42 84 88 130 33 34 73 80 88 102 l29 40 -29
-30 c-16 -17 -44 -48 -61 -70 -49 -59 -40 -26 17 61 28 42 50 82 50 88 0 6
-11 -7 -23 -29 -13 -22 -51 -80 -85 -130 -88 -130 -141 -268 -150 -392 -5 -67
-11 -98 -21 -101 -14 -5 -13 7 3 127 7 52 52 197 70 226 7 11 15 36 19 55 5
33 5 34 -6 9 -12 -26 -67 -95 -67 -84 0 3 -16 -6 -36 -21 -26 -21 -32 -29 -22
-36 9 -6 7 -8 -7 -4 -27 8 -129 -87 -151 -139 -19 -47 -27 -44 -19 8 13 75 44
125 126 200 90 82 93 115 4 48 -78 -59 -120 -103 -141 -150 -11 -22 -22 -41
-25 -41 -4 0 -9 19 -12 42 -11 83 34 135 221 253 68 43 126 84 129 92 3 7 9
11 13 8 4 -2 16 5 26 16 16 18 16 19 1 13 -9 -3 -17 -10 -17 -16 0 -5 -4 -7
-9 -4 -4 3 -18 -6 -31 -19 -13 -13 -27 -22 -33 -18 -6 3 -7 1 -3 -5 4 -7 3
-12 -3 -12 -5 0 -13 5 -16 10 -8 13 -25 13 -25 -1 0 -5 4 -8 9 -4 5 3 12 1 15
-4 13 -21 -17 -22 -39 -1 -44 41 -67 48 -100 32 -39 -19 -123 -100 -141 -135
-8 -15 -19 -25 -24 -22 -6 4 -10 1 -10 -4 0 -6 4 -11 9 -11 5 0 8 -18 7 -39 0
-22 2 -37 6 -35 4 3 6 -18 5 -45 -3 -65 -13 -45 -26 54 -11 73 -46 175 -61
175 -4 0 -22 21 -40 47 -19 26 -70 90 -115 143 -153 181 -210 264 -265 389
-40 92 -57 173 -70 341 -13 179 -21 241 -32 265 -7 16 -8 15 -3 -7z m1260
-1113 c-17 -13 -25 -24 -19 -25 5 0 16 6 24 13 12 10 12 9 1 -6 -9 -11 -21
-15 -32 -12 -11 4 -19 2 -19 -4 0 -6 5 -11 11 -11 5 0 7 -5 3 -11 -4 -8 -9 -7
-15 2 -10 17 -38 -16 -85 -105 -28 -52 -38 -84 -42 -135 -3 -43 -11 -74 -23
-90 -23 -29 -23 -21 -3 77 22 109 67 194 146 276 37 39 71 67 75 63 4 -5 -6
-19 -22 -32z m-417 -60 c0 -17 -1 -17 -5 -2 -2 9 -9 17 -14 17 -6 0 -8 -4 -4
-9 3 -5 0 -13 -6 -17 -7 -4 -9 -3 -6 3 10 15 -29 23 -44 9 -10 -8 -10 -7 0 7
15 19 2 24 -16 6 -9 -9 -11 -7 -9 7 2 14 11 19 30 18 20 -1 26 3 22 13 -4 9 6
5 23 -9 17 -13 30 -32 29 -43z m472 -49 c0 -2 -7 -9 -15 -16 -13 -11 -14 -10
-9 4 5 14 24 23 24 12z m-653 -42 c8 -21 -13 -42 -28 -27 -13 13 -5 43 11 43
6 0 13 -7 17 -16z m-370 -56 c-13 -8 -39 10 -31 23 3 5 14 3 24 -3 13 -9 16
-14 7 -20z m1261 -21 c43 -35 54 -138 25 -223 -22 -65 -106 -150 -157 -160
-154 -28 -254 112 -181 255 29 58 85 105 157 132 57 21 129 19 156 -4z m-1238
-2 c-7 -9 -15 -13 -17 -11 -7 7 7 26 19 26 6 0 6 -6 -2 -15z m621 -22 c-5 -16
-15 -44 -24 -63 -15 -34 -15 -34 -16 -8 -1 22 33 98 44 98 2 0 0 -12 -4 -27z
m-591 13 c0 -2 -7 -7 -16 -10 -8 -3 -12 -2 -9 4 6 10 25 14 25 6z m531 -114
c-16 -43 -44 -181 -38 -195 8 -22 -12 -125 -32 -159 -21 -36 -53 -147 -45
-159 2 -4 -2 -10 -8 -12 -9 -4 -8 -6 3 -6 9 -1 16 -7 16 -13 1 -7 4 -28 9 -47
5 -25 4 -32 -5 -27 -6 4 -9 11 -6 16 7 11 -20 66 -38 77 -6 4 -44 46 -84 93
-39 47 -85 98 -102 114 -55 52 -33 49 37 -5 80 -62 110 -96 138 -158 l20 -46
2 45 c3 97 24 170 67 240 21 34 21 36 3 65 -10 17 -18 26 -18 20 0 -5 -5 -4
-12 3 -20 20 -32 13 -14 -7 18 -20 5 -24 -22 -7 -11 6 -9 13 9 32 12 13 27 21
33 17 6 -3 8 -2 3 2 -4 5 9 26 30 47 20 21 33 38 28 38 -20 0 -127 -120 -122
-134 4 -10 1 -13 -9 -9 -7 3 -14 7 -14 9 0 15 35 84 58 113 15 20 27 40 27 45
0 5 9 10 19 12 11 1 31 14 45 29 21 21 27 23 29 10 2 -9 -1 -29 -7 -43z m91
-24 c-7 -7 -12 -8 -12 -2 0 14 12 26 19 19 2 -3 -1 -11 -7 -17z m784 -105 c-6
-17 -5 -17 8 0 7 9 17 17 21 17 11 0 -35 -49 -55 -60 -25 -14 -22 27 3 45 27
19 30 19 23 -2z m-722 -168 c9 -68 -9 -59 -19 10 -14 91 -17 100 -27 81 -5 -9
-13 -14 -17 -11 -19 11 -33 -26 -29 -75 7 -66 -7 -65 -16 1 -6 45 -4 55 15 75
12 13 26 21 30 18 5 -3 6 3 2 12 -4 12 -3 15 5 10 8 -4 12 0 12 11 0 11 6 25
13 32 10 10 13 1 18 -46 3 -32 9 -85 13 -118z m643 103 c-3 -8 -6 -5 -6 6 -1
11 2 17 5 13 3 -3 4 -12 1 -19z m-857 -7 c0 -6 -4 -13 -10 -16 -5 -3 -10 1
-10 9 0 9 5 16 10 16 6 0 10 -4 10 -9z m1040 -21 c-6 -11 -16 -18 -21 -14 -6
3 -3 12 8 20 24 18 26 17 13 -6z m-860 -4 c0 -2 -11 -11 -24 -19 -22 -15 -24
-15 -19 1 3 14 43 30 43 18z m-759 -33 c13 -16 12 -17 -3 -4 -10 7 -18 15 -18
17 0 8 8 3 21 -13z m678 -100 c1 -56 -17 -36 -24 26 -8 70 6 108 17 46 4 -22
7 -55 7 -72z m47 -85 c4 -29 4 -50 0 -46 -11 10 -33 112 -28 128 7 20 20 -18
28 -82z m88 51 c3 -17 6 -43 5 -58 l-1 -26 -7 25 c-15 49 -20 90 -12 90 5 0
11 -14 15 -31z m229 -34 c1 -5 -6 -11 -15 -13 -11 -2 -18 3 -18 13 0 17 30 18
33 0z m52 -5 c-3 -5 -10 -10 -16 -10 -5 0 -9 5 -9 10 0 6 7 10 16 10 8 0 12
-4 9 -10z m70 -23 c16 -5 15 -5 -4 -4 -14 1 -26 9 -28 17 -3 10 -2 11 4 4 4
-7 17 -14 28 -17z m-355 -121 c0 -11 -19 -15 -25 -6 -3 5 1 10 9 10 9 0 16 -2
16 -4z m283 -23 c-7 -2 -19 -2 -25 0 -7 3 -2 5 12 5 14 0 19 -2 13 -5z m-513
-88 c0 -5 -5 -3 -10 5 -5 8 -10 20 -10 25 0 6 5 3 10 -5 5 -8 10 -19 10 -25z
m367 -101 c-3 -3 -12 -4 -19 -1 -8 3 -5 6 6 6 11 1 17 -2 13 -5z m-187 -61 c0
-5 -23 -23 -50 -41 -28 -17 -50 -37 -50 -42 0 -6 -4 -10 -10 -10 -13 0 8 49
34 78 18 21 76 32 76 15z m-60 -130 c0 -9 -9 -26 -19 -37 -11 -12 -27 -34 -35
-51 l-16 -30 0 41 c0 27 7 51 21 68 23 29 49 34 49 9z m0 -150 c0 -10 -9 -33
-20 -51 -11 -18 -20 -42 -20 -53 0 -11 -4 -17 -10 -14 -14 8 -13 71 1 98 20
38 49 49 49 20z"/>
<path d="M1334 3662 c4 -3 14 -7 22 -8 9 -1 13 0 10 4 -4 3 -14 7 -22 8 -9 1
-13 0 -10 -4z"/>
<path d="M1896 3349 c4 -8 -1 -9 -17 -4 -15 4 -19 3 -11 -3 10 -6 8 -13 -8
-27 -20 -18 -21 -18 -15 1 4 12 1 10 -9 -6 -8 -14 -15 -46 -16 -72 0 -39 5
-52 34 -82 18 -20 42 -36 52 -36 11 0 30 -3 43 -7 18 -5 22 -3 16 7 -5 9 -4
11 3 6 12 -7 25 1 61 37 39 38 14 124 -49 168 -30 20 -94 34 -84 18z m124
-184 c-7 -8 -16 -15 -21 -15 -5 0 -1 8 9 18 20 22 31 19 12 -3z"/>
<path d="M1334 3203 c11 -11 48 -14 41 -3 -3 5 -16 10 -27 10 -12 0 -18 -3
-14 -7z"/>
<path d="M2270 3190 c0 -5 5 -10 10 -10 6 0 10 5 10 10 0 6 -4 10 -10 10 -5 0
-10 -4 -10 -10z"/>
<path d="M2084 4798 c-56 -63 -77 -88 -72 -88 3 0 28 27 57 60 55 63 66 83 15
28z"/>
<path d="M1921 4804 c0 -11 3 -14 6 -6 3 7 2 16 -1 19 -3 4 -6 -2 -5 -13z"/>
<path d="M395 4750 c10 -11 20 -20 23 -20 3 0 -3 9 -13 20 -10 11 -20 20 -23
20 -3 0 3 -9 13 -20z"/>
<path d="M1787 4733 c-4 -3 -7 -11 -7 -17 0 -6 5 -5 12 2 6 6 9 14 7 17 -3 3
-9 2 -12 -2z"/>
<path d="M190 4704 c0 -13 18 -39 24 -34 2 3 -2 14 -10 24 -8 11 -14 16 -14
10z"/>
<path d="M2019 4513 c-13 -16 -12 -17 4 -4 9 7 17 15 17 17 0 8 -8 3 -21 -13z"/>
<path d="M2283 4309 c-12 -30 -11 -32 3 -17 9 8 14 23 12 33 -2 12 -7 7 -15
-16z"/>
<path d="M2976 4237 c3 -10 9 -15 12 -12 3 3 0 11 -7 18 -10 9 -11 8 -5 -6z"/>
<path d="M760 4206 c0 -2 7 -7 16 -10 8 -3 12 -2 9 4 -6 10 -25 14 -25 6z"/>
<path d="M2530 4163 c0 -4 5 -15 10 -23 8 -13 10 -13 10 2 0 9 -4 20 -10 23
-5 3 -10 3 -10 -2z"/>
<path d="M209 4100 c-45 -24 -92 -78 -85 -97 3 -8 1 -11 -4 -8 -6 3 -10 -5
-10 -19 0 -34 16 -33 25 2 11 45 53 100 92 121 21 11 34 20 28 20 -5 0 -26 -9
-46 -19z"/>
<path d="M1639 4083 l-24 -28 28 24 c25 23 32 31 24 31 -2 0 -14 -12 -28 -27z"/>
<path d="M1762 4075 c-11 -13 -22 -21 -26 -18 -3 3 -6 1 -6 -6 0 -7 -5 -9 -12
-5 -7 4 -10 4 -6 -1 4 -4 3 -14 -3 -22 -7 -7 -7 -13 -2 -13 5 0 29 20 52 45
23 25 38 45 32 45 -5 0 -18 -11 -29 -25z"/>
<path d="M2907 4009 c-91 -91 -233 -189 -396 -271 -119 -60 -138 -81 -25 -27
35 16 69 27 74 24 6 -3 10 -1 10 4 0 6 5 11 10 11 6 0 55 27 110 61 112 68
227 124 310 150 30 9 47 18 38 18 -24 1 -154 -46 -208 -76 l-45 -24 50 43 c59
51 132 126 146 151 5 9 8 17 7 16 -2 0 -38 -36 -81 -80z"/>
<path d="M2024 4035 c36 -19 47 -19 22 0 -11 8 -27 15 -35 15 -9 0 -3 -7 13
-15z"/>
<path d="M2780 3972 c-41 -42 -61 -67 -45 -55 31 22 125 118 125 128 0 8 0 8
-80 -73z"/>
<path d="M1559 4009 l-24 -20 28 17 c15 9 27 18 27 20 0 8 -8 4 -31 -17z"/>
<path d="M610 3995 c0 -5 5 -17 10 -25 5 -8 10 -10 10 -5 0 6 -5 17 -10 25 -5
8 -10 11 -10 5z"/>
<path d="M3176 3955 c10 -8 24 -14 29 -14 6 0 1 6 -9 14 -11 8 -24 15 -30 15
-5 0 -1 -7 10 -15z"/>
<path d="M670 3956 c0 -11 40 -86 45 -86 3 0 -4 19 -16 43 -23 45 -29 54 -29
43z"/>
<path d="M630 3947 c0 -5 24 -50 54 -100 58 -100 142 -212 335 -449 69 -84
136 -172 150 -195 27 -43 52 -61 29 -20 -6 12 -13 39 -14 60 0 20 -5 41 -9 45
-4 4 -5 -10 -2 -30 3 -21 4 -38 3 -38 -2 0 -29 40 -60 89 -31 49 -91 135 -133
192 -67 90 -190 260 -245 339 l-18 25 12 -30 c7 -16 18 -37 24 -45 9 -11 10
-20 3 -30 -8 -12 -9 -11 -7 5 2 12 -2 19 -9 18 -7 -2 -13 4 -13 12 0 8 -5 15
-11 15 -6 0 -8 7 -5 16 3 9 2 12 -5 9 -6 -4 -9 1 -7 11 2 11 -2 18 -9 17 -7
-2 -13 0 -13 5 0 10 -49 89 -50 79z m164 -219 c-3 -5 -1 -8 5 -8 6 0 16 -10
22 -22 9 -17 3 -14 -24 11 -20 19 -33 40 -30 48 4 11 8 10 18 -4 7 -10 11 -21
9 -25z m75 -112 c-3 -3 -11 5 -18 17 -13 21 -12 21 5 5 10 -10 16 -20 13 -22z"/>
<path d="M2990 3912 c-114 -30 -279 -139 -390 -258 -51 -54 -29 -41 43 26 150
140 291 217 432 236 80 10 84 12 35 12 -30 1 -84 -7 -120 -16z"/>
<path d="M2614 3884 c-18 -14 -18 -15 4 -4 12 6 22 13 22 15 0 8 -5 6 -26 -11z"/>
<path d="M2405 3860 c-3 -6 1 -7 9 -4 18 7 21 14 7 14 -6 0 -13 -4 -16 -10z"/>
<path d="M2550 3855 c-14 -8 -20 -14 -15 -14 6 0 21 6 35 14 14 8 21 14 15 14
-5 0 -21 -6 -35 -14z"/>
<path d="M1725 3834 c-9 -15 -12 -23 -6 -20 11 7 35 46 28 46 -3 0 -12 -12
-22 -26z"/>
<path d="M2300 3754 c-113 -47 -211 -88 -219 -91 -9 -4 -12 -2 -7 5 4 7 2 12
-3 12 -11 0 -15 -32 -6 -42 3 -2 35 10 72 28 38 18 136 61 218 95 136 56 187
81 160 78 -6 -1 -102 -39 -215 -85z"/>
<path d="M2310 3822 c0 -5 -6 -9 -12 -9 -21 0 -258 -115 -258 -125 0 -5 9 -4
19 2 25 13 34 13 26 0 -11 -18 5 -11 100 42 51 29 91 57 88 62 -4 5 1 7 10 3
8 -3 21 1 27 8 7 8 17 12 23 8 6 -3 7 -1 3 5 -8 14 -26 16 -26 4z m-184 -107
c-11 -8 -25 -15 -30 -15 -6 0 -2 7 8 15 11 8 25 15 30 15 6 0 2 -7 -8 -15z"/>
<path d="M1923 3774 c-24 -14 -43 -27 -43 -30 0 -6 67 33 85 48 17 15 1 8 -42
-18z"/>
<path d="M1679 3773 c-13 -16 -12 -17 4 -4 9 7 17 15 17 17 0 8 -8 3 -21 -13z"/>
<path d="M1604 3758 l-19 -23 23 19 c21 18 27 26 19 26 -2 0 -12 -10 -23 -22z"/>
<path d="M1392 3739 c-18 -12 -31 -24 -28 -26 3 -3 17 4 32 16 14 11 31 18 37
14 6 -3 7 -1 3 5 -9 15 -5 16 -44 -9z"/>
<path d="M1653 3753 c4 -3 1 -13 -6 -22 -11 -14 -10 -14 5 -2 16 12 16 31 1
31 -4 0 -3 -3 0 -7z"/>
<path d="M2529 3713 c-13 -16 -12 -17 4 -4 9 7 17 15 17 17 0 8 -8 3 -21 -13z"/>
<path d="M1610 3695 c-7 -8 -17 -12 -23 -8 -6 3 -7 1 -3 -5 4 -7 1 -12 -7 -12
-14 0 -70 -54 -67 -65 1 -4 -1 -9 -4 -12 -3 -4 -6 -1 -6 6 0 8 -12 2 -30 -12
-16 -14 -35 -27 -41 -29 -12 -4 -4 -28 9 -28 4 0 23 14 42 31 19 17 44 39 55
48 31 26 100 101 93 101 -3 0 -11 -7 -18 -15z m-60 -59 c0 -2 -8 -10 -17 -17
-16 -13 -17 -12 -4 4 13 16 21 21 21 13z"/>
<path d="M3110 3606 c0 -2 7 -7 16 -10 8 -3 12 -2 9 4 -6 10 -25 14 -25 6z"/>
<path d="M2509 3553 c-13 -16 -12 -17 4 -4 9 7 17 15 17 17 0 8 -8 3 -21 -13z"/>
<path d="M2575 3530 c-21 -22 -37 -41 -34 -43 2 -2 21 16 43 40 49 54 43 56
-9 3z"/>
<path d="M2470 3520 c0 -5 5 -10 10 -10 6 0 10 5 10 10 0 6 -4 10 -10 10 -5 0
-10 -4 -10 -10z"/>
<path d="M2645 3504 c-23 -23 -7 -38 18 -17 12 10 23 18 25 19 2 1 -4 4 -12 7
-9 4 -22 -1 -31 -9z m25 2 c0 -2 -8 -10 -17 -17 -16 -13 -17 -12 -4 4 13 16
21 21 21 13z"/>
<path d="M2943 3421 c-6 -18 -7 -31 -2 -31 12 0 22 24 17 45 -2 12 -7 7 -15
-14z"/>
<path d="M2445 3160 c-3 -5 -2 -10 4 -10 5 0 13 5 16 10 3 6 2 10 -4 10 -5 0
-13 -4 -16 -10z"/>
<path d="M1200 3141 c0 -5 5 -13 10 -16 6 -3 10 -2 10 4 0 5 -4 13 -10 16 -5
3 -10 2 -10 -4z"/>
<path d="M2866 3064 c-4 -9 -4 -19 -1 -22 2 -3 7 3 11 12 4 9 4 19 1 22 -2 3
-7 -3 -11 -12z"/>
<path d="M1253 2965 c0 -8 4 -12 9 -9 5 3 6 10 3 15 -9 13 -12 11 -12 -6z"/>
<path d="M773 2853 c9 -2 23 -2 30 0 6 3 -1 5 -18 5 -16 0 -22 -2 -12 -5z"/>
<path d="M1818 2783 c7 -3 16 -2 19 1 4 3 -2 6 -13 5 -11 0 -14 -3 -6 -6z"/>
<path d="M1522 2760 c0 -14 2 -19 5 -12 2 6 2 18 0 25 -3 6 -5 1 -5 -13z"/>
<path d="M2561 2727 c-13 -21 -12 -21 5 -5 10 10 16 20 13 22 -3 3 -11 -5 -18
-17z"/>
<path d="M1848 2623 c7 -3 16 -2 19 1 4 3 -2 6 -13 5 -11 0 -14 -3 -6 -6z"/>
<path d="M520 2550 c0 -5 5 -10 10 -10 6 0 10 5 10 10 0 6 -4 10 -10 10 -5 0
-10 -4 -10 -10z"/>
<path d="M516 2518 c3 -4 1 -8 -3 -8 -5 0 -14 -10 -22 -22 -11 -18 -7 -17 18
6 36 35 35 33 16 33 -8 0 -12 -4 -9 -9z"/>
<path d="M1189 2482 c-31 -3 -39 -8 -53 -40 -22 -51 -37 -181 -30 -263 l7 -68
-162 3 c-111 1 -161 -2 -161 -9 0 -6 14 -24 30 -40 35 -33 41 -23 8 13 -22 24
-23 24 -2 14 12 -6 24 -18 27 -26 5 -12 33 -16 141 -18 88 -2 132 0 127 7 -14
18 -21 45 -12 45 5 0 11 -10 14 -22 13 -50 62 -80 105 -63 13 5 13 7 0 18 -35
27 -53 107 -53 232 0 113 2 123 28 169 15 27 26 49 25 50 -2 1 -19 0 -39 -2z
m-319 -382 c0 -5 -4 -10 -10 -10 -5 0 -10 5 -10 10 0 6 5 10 10 10 6 0 10 -4
10 -10z m190 -20 c-9 -18 -21 -20 -95 -20 -46 0 -86 3 -88 8 -3 4 35 6 84 4
76 -3 89 -1 89 12 0 9 5 16 10 16 7 0 7 -6 0 -20z m27 -12 c-3 -7 -5 -2 -5 12
0 14 2 19 5 13 2 -7 2 -19 0 -25z"/>
<path d="M1912 2482 c-24 -2 -36 -11 -47 -32 -23 -44 -38 -175 -31 -273 8
-123 33 -165 99 -165 32 1 32 -1 7 40 -11 18 -20 40 -20 48 1 8 7 1 14 -16 14
-31 36 -54 36 -37 0 5 -7 18 -15 29 -16 21 -19 34 -7 34 4 0 13 -15 20 -32
l11 -33 2732 2 c2716 3 2731 3 2756 -17 27 -21 83 -28 83 -10 0 6 -4 10 -8 10
-4 0 -13 14 -20 32 -8 23 -9 35 0 45 8 10 7 12 -4 8 -20 -8 -27 17 -35 121 -5
67 -2 94 16 153 12 40 28 74 36 78 25 9 7 21 -26 17 -43 -5 -57 -19 -71 -68
-13 -46 -17 -273 -6 -324 5 -21 4 -31 -2 -27 -6 3 -10 16 -10 28 l0 22 -2717
0 c-1801 0 -2720 -3 -2725 -10 -5 -6 -8 -5 -8 4 0 8 -7 11 -20 8 -33 -9 -47
17 -54 100 -9 104 19 230 56 254 15 10 -3 15 -40 11z m102 -414 c6 -4 1 -6
-12 -5 -24 1 -26 6 -15 34 7 17 8 17 11 -2 3 -11 9 -23 16 -27z m69 25 c-7 -2
-21 -2 -30 0 -10 3 -4 5 12 5 17 0 24 -2 18 -5z m5297 -13 c0 -11 -2 -20 -4
-20 -2 0 -6 9 -9 20 -3 11 -1 20 4 20 5 0 9 -9 9 -20z m30 6 c0 -8 -4 -17 -9
-21 -6 -3 -9 4 -8 15 1 23 17 28 17 6z m-1378 -23 c-732 -2 -1932 -2 -2665 0
-732 1 -133 2 1333 2 1466 0 2065 -1 1332 -2z"/>
<path d="M7644 2477 c-29 -17 -45 -77 -51 -195 -9 -191 18 -272 92 -272 19 0
35 5 35 10 0 6 -4 10 -9 10 -10 0 -34 61 -26 68 3 3 5 -1 5 -9 0 -12 2 -11 10
1 8 11 9 8 4 -12 l-6 -28 656 0 c361 0 657 1 659 3 1 1 15 -8 31 -20 30 -24
80 -31 91 -13 3 6 0 10 -8 10 -7 0 -23 29 -37 68 -41 114 -30 306 21 360 22
25 17 30 -24 26 -64 -7 -82 -62 -82 -249 0 -62 -4 -113 -10 -117 -5 -4 -306
-8 -667 -7 l-658 0 -7 27 c-13 44 -9 224 5 263 7 20 22 45 33 57 11 12 18 22
17 23 -19 5 -62 3 -74 -4z m146 -383 c0 -2 -9 -4 -20 -4 -11 0 -20 4 -20 9 0
5 9 7 20 4 11 -3 20 -7 20 -9z m1194 -25 c-3 -5 -281 -8 -617 -7 l-612 3 608
2 608 3 -6 23 c-6 21 -5 21 9 3 9 -10 13 -23 10 -27z m26 31 c0 -5 -5 -10 -11
-10 -5 0 -7 5 -4 10 3 6 8 10 11 10 2 0 4 -4 4 -10z m10 -30 c0 -5 -5 -10 -11
-10 -5 0 -7 5 -4 10 3 6 8 10 11 10 2 0 4 -4 4 -10z"/>
<path d="M9250 2480 l-75 -5 -20 -40 c-17 -35 -20 -60 -20 -196 0 -118 -3
-156 -12 -156 -7 0 -13 4 -13 9 0 4 5 8 11 8 5 0 7 5 4 10 -3 6 -13 10 -21 10
-12 0 -12 -5 -1 -32 7 -17 19 -34 26 -36 8 -3 11 0 7 7 -4 6 -2 11 3 11 6 0
11 -4 11 -8 0 -5 9 -18 20 -30 18 -19 31 -22 109 -22 91 0 111 5 86 24 -7 6
-23 39 -34 73 -37 111 -24 299 25 354 24 27 23 28 -106 19z"/>
<path d="M9467 2482 c-29 -3 -40 -9 -52 -32 -21 -41 -38 -180 -33 -260 4 -58
2 -69 -13 -79 -15 -8 -19 -8 -19 1 0 6 -2 9 -5 6 -10 -9 17 -68 31 -68 8 0 16
1 18 3 2 1 13 -6 24 -16 21 -19 92 -33 92 -18 0 6 -4 12 -9 15 -16 10 -50 121
-56 188 -9 82 15 204 46 237 25 27 25 27 -24 23z m-72 -420 c-3 -3 -5 1 -5 9
0 12 -2 12 -9 0 -6 -9 -11 -10 -15 -2 -4 6 -2 11 3 11 6 0 11 8 12 18 0 12 3
10 10 -7 5 -13 7 -26 4 -29z"/>
<path d="M2451 2448 c29 -103 136 -156 246 -123 57 17 109 66 123 115 11 38 4
54 -12 26 -5 -10 -33 -29 -62 -42 -90 -42 -216 -26 -270 35 -27 30 -36 26 -25
-11z"/>
<path d="M3261 2448 c5 -18 9 -34 9 -35 0 -1 14 -18 31 -38 96 -109 301 -62
333 78 6 27 -7 39 -17 13 -3 -7 -29 -25 -58 -40 -91 -45 -218 -30 -273 33 -27
30 -36 26 -25 -11z"/>
<path d="M4070 2451 c19 -67 64 -111 135 -130 99 -27 214 33 235 123 8 35 -2
51 -14 21 -3 -9 -29 -27 -58 -40 -93 -43 -218 -28 -272 34 -26 29 -36 26 -26
-8z"/>
<path d="M4880 2451 c13 -45 28 -69 63 -95 112 -85 280 -33 311 97 7 28 -8 38
-18 12 -3 -9 -29 -27 -58 -40 -89 -41 -198 -31 -262 26 -42 36 -47 36 -36 0z"/>
<path d="M5690 2461 c0 -61 64 -124 142 -140 94 -19 181 18 217 93 20 39 26
66 17 66 -2 0 -17 -13 -34 -28 -77 -72 -236 -69 -314 5 -28 27 -28 27 -28 4z"/>
<path d="M6500 2468 c0 -61 55 -123 127 -144 113 -33 222 24 247 129 8 34 5
34 -32 -1 -77 -72 -236 -69 -314 5 -22 21 -28 23 -28 11z"/>
<path d="M8536 2458 c8 -29 10 -31 23 -23 8 4 8 12 1 26 -15 27 -33 24 -24 -3z"/>
<path d="M8873 2450 c-18 -16 -51 -34 -75 -41 -55 -14 -143 -8 -187 14 -26 13
-37 14 -47 6 -20 -16 -18 -23 18 -58 104 -102 289 -58 327 77 12 39 5 40 -36
2z"/>
<path d="M9866 2449 c-75 -89 -74 -322 2 -411 33 -39 98 -15 130 48 24 45 34
150 23 224 -24 150 -93 213 -155 139z m131 -131 c-3 -8 -6 -5 -6 6 -1 11 2 17
5 13 3 -3 4 -12 1 -19z"/>
<path d="M1710 2109 c0 -5 7 -21 16 -34 14 -21 24 -25 66 -25 42 0 49 3 46 18
-4 21 -67 30 -79 10 -6 -9 -9 -8 -9 7 0 18 5 20 43 17 23 -3 39 -1 35 3 -11
11 -118 16 -118 4z m30 -9 c0 -5 -2 -10 -4 -10 -3 0 -8 5 -11 10 -3 6 -1 10 4
10 6 0 11 -4 11 -10z"/>
<path d="M7538 2103 c-14 -16 -15 -21 -2 -37 7 -11 17 -16 21 -11 5 4 2 10 -4
12 -7 3 -13 12 -13 21 0 13 3 12 15 -4 11 -14 14 -15 15 -4 0 8 -4 21 -8 28
-7 10 -12 8 -24 -5z"/>
<path d="M7574 2082 c-1 -30 2 -38 16 -38 14 0 16 4 9 17 -5 10 -9 27 -9 38 0
38 -15 22 -16 -17z"/>
<path d="M9481 2109 c-1 -9 7 -26 17 -38 16 -19 29 -21 160 -23 128 -3 143 -1
148 15 3 9 3 25 0 35 -5 15 -22 17 -156 17 -139 0 -166 -4 -140 -20 6 -3 10
-11 10 -16 0 -16 -21 1 -30 25 -6 15 -9 16 -9 5z m309 -19 c6 -11 8 -20 6 -20
-3 0 -10 9 -16 20 -6 11 -8 20 -6 20 3 0 10 -9 16 -20z m-217 3 c-7 -2 -19 -2
-25 0 -7 3 -2 5 12 5 14 0 19 -2 13 -5z m197 -18 c0 -12 -17 -15 -97 -13 l-98
2 93 3 c50 2 92 8 92 13 0 6 2 10 5 10 3 0 5 -7 5 -15z m-213 -11 c-3 -3 -12
-4 -19 -1 -8 3 -5 6 6 6 11 1 17 -2 13 -5z"/>
<path d="M1251 2054 c0 -11 3 -14 6 -6 3 7 2 16 -1 19 -3 4 -6 -2 -5 -13z"/>
<path d="M1500 1844 c0 -29 32 -84 49 -84 15 0 -1 58 -25 86 l-23 29 -1 -31z"/>
<path d="M1500 1726 c0 -20 3 -36 8 -36 4 0 15 -12 24 -27 l17 -28 1 34 c0 21
-9 44 -25 63 l-25 30 0 -36z"/>
<path d="M1500 1618 c0 -24 8 -42 25 -58 l25 -23 0 27 c0 16 -11 41 -25 58
l-25 30 0 -34z"/>
<path d="M1500 1524 c0 -11 -11 -31 -25 -44 -33 -31 -34 -88 -2 -118 13 -12
28 -22 34 -22 7 0 19 -7 27 -16 14 -14 16 -14 16 0 0 8 8 20 19 25 10 6 24 24
31 41 11 27 11 37 -3 65 -9 18 -26 36 -39 40 -13 4 -31 17 -40 29 -18 21 -18
21 -18 0z m54 -55 c-3 -5 1 -6 9 -3 23 8 28 -23 8 -48 -18 -21 -19 -21 -45 -5
-30 20 -34 51 -9 65 19 11 46 4 37 -9z m-11 -104 c9 2 15 -1 11 -6 -9 -15 -41
-10 -65 11 l-24 21 30 -14 c17 -8 38 -13 48 -12z"/>
<path d="M1500 976 c0 -10 -11 -27 -25 -38 -39 -30 -35 -88 8 -122 17 -14 40
-34 50 -43 16 -15 17 -15 17 5 0 12 8 26 19 31 10 6 24 24 31 41 18 42 -7 96
-47 106 -15 3 -34 13 -40 22 -12 14 -13 14 -13 -2z m70 -51 c17 -21 8 -50 -18
-53 -12 -2 -22 -9 -22 -15 0 -7 -8 3 -16 20 -9 18 -14 39 -10 48 7 19 50 20
66 0z m-60 -95 c24 -18 24 -19 3 -14 -12 4 -28 12 -34 20 -17 20 2 17 31 -6z"/>
<path d="M1500 741 c0 -11 -9 -25 -20 -31 -11 -6 -20 -19 -20 -30 0 -10 -4
-21 -9 -24 -5 -4 -12 -28 -16 -56 -4 -27 -15 -60 -25 -73 -49 -62 -109 -212
-92 -229 22 -22 46 -3 62 49 19 64 35 83 24 28 -5 -22 -9 -58 -9 -80 0 -34 3
-40 23 -43 12 -2 22 1 22 7 0 6 5 11 10 11 6 0 10 -6 10 -14 0 -38 47 -27 53
12 l4 27 2 -28 c1 -32 24 -45 47 -26 9 7 28 13 42 14 19 0 27 5 26 17 -1 13 4
16 26 12 36 -8 43 5 30 62 -12 53 -57 172 -72 191 -6 7 -11 33 -13 59 -2 25
-8 51 -14 57 -6 6 -11 18 -11 27 0 9 -18 31 -40 49 -36 29 -40 30 -40 12z m68
-59 c3 -9 -5 -11 -30 -7 -22 4 -30 3 -23 -4 6 -6 22 -12 35 -14 14 -2 27 -12
28 -22 3 -15 -1 -17 -30 -12 -18 3 -44 8 -58 12 l-25 6 25 -16 25 -15 -25 2
c-31 4 -33 30 -3 38 17 4 20 9 13 20 -5 8 -10 19 -10 23 0 13 73 3 78 -11z
m22 -92 c0 -16 -72 -32 -107 -24 -38 10 -26 24 20 24 23 0 49 4 57 9 15 10 30
6 30 -9z m-57 -117 c-6 -57 -31 -184 -37 -190 -3 -3 -10 -2 -16 2 -12 7 -5
112 10 155 5 14 14 37 19 53 16 43 29 32 24 -20z m64 -24 c22 -65 31 -169 14
-169 -5 0 -15 16 -21 35 -14 42 -25 45 -25 8 0 -50 -20 -34 -23 18 -2 34 0 49
8 44 7 -4 8 16 4 66 -9 93 11 92 43 -2z m-143 -38 c-7 -45 -24 -56 -24 -15 0
26 18 69 26 61 3 -2 2 -23 -2 -46z m191 -12 l4 -34 -14 30 c-17 37 -20 64 -4
48 6 -6 12 -26 14 -44z m-188 -111 c-3 -7 -5 -2 -5 12 0 14 2 19 5 13 2 -7 2
-19 0 -25z"/>
</g>
</svg>
